<svg width="27" height="38" viewBox="0 0 27 38" fill="none" xmlns="http://www.w3.org/2000/svg">
<g clip-path="url(#clip0_62_556)">
<path fill-rule="evenodd" clip-rule="evenodd" d="M8.63483 29.8641C10.0072 32.0411 11.4913 34.679 12.9568 37.2426C13.5002 38.1889 13.9907 38.3312 14.6428 37.2086C16.0586 34.7625 17.4496 32.2298 18.9151 29.8671C23.3644 22.6958 30.6453 15.7037 24.8547 6.05221C19.713 -2.51696 5.72867 -1.60159 1.5464 6.37692C-3.24753 15.5213 4.23833 22.8937 8.63483 29.8641Z" fill="#EA4335"/>
<path fill-rule="evenodd" clip-rule="evenodd" d="M13.4941 7.91357C16.3847 7.91357 18.7289 10.2484 18.7289 13.1274C18.7289 16.0065 16.3847 18.3413 13.4941 18.3413C10.6035 18.3413 8.25928 16.0065 8.25928 13.1274C8.25928 10.2484 10.6035 7.91357 13.4941 7.91357Z" fill="#A60D0D"/>
</g>
<defs>
<clipPath id="clip0_62_556">
<rect width="27" height="38" fill="white"/>
</clipPath>
</defs>
</svg>
