<svg width="200" height="120" viewBox="0 0 200 120" fill="none" xmlns="http://www.w3.org/2000/svg">
<path d="M106.262 51.0151V48.2549C106.265 47.8348 106.582 47.5538 106.964 47.5538H119.329C119.727 47.5538 120.043 47.8427 120.043 48.2524V50.6239C120.039 51.0153 119.704 51.536 119.112 52.3604L112.702 61.5148C115.081 61.4591 117.597 61.8148 119.759 63.0319C120.246 63.3072 120.378 63.7085 120.415 64.1076V67.0594C120.415 67.4674 119.97 67.9387 119.507 67.6933C115.697 65.6925 110.646 65.475 106.438 67.7172C106.007 67.9478 105.558 67.486 105.558 67.0781V64.2699C105.558 63.8224 105.565 63.0549 106.017 62.372L113.437 51.7132H106.978C106.583 51.713 106.267 51.4313 106.262 51.0151ZM61.1554 68.2744H57.3929C57.0349 68.2526 56.7464 67.983 56.7198 67.6387L56.7232 48.3021C56.7232 47.9165 57.0455 47.6057 57.4483 47.6057L60.9518 47.6044C61.3189 47.6245 61.6123 47.9021 61.6364 48.2549V50.7804H61.7054C62.6164 48.3386 64.3396 47.1973 66.6552 47.1973C69.0099 47.1973 70.4808 48.3386 71.5372 50.7804C72.4511 48.3386 74.5211 47.1973 76.7358 47.1973C78.317 47.1973 80.0361 47.8496 81.0913 49.3146C82.2867 50.9378 82.0397 53.3016 82.0397 55.3723L82.0382 67.5773C82.0382 67.9651 81.7102 68.2742 81.311 68.2742H77.5544C77.1751 68.2524 76.8788 67.9518 76.8788 67.5813L76.8773 57.3274C76.8773 56.5145 76.9461 54.4824 76.7702 53.7058C76.4872 52.4045 75.645 52.0383 74.5564 52.0383C73.6473 52.0383 72.697 52.649 72.3094 53.6258C71.925 54.6031 71.9584 56.2271 71.9584 57.3274V67.5769C71.9584 67.9647 71.6333 68.2739 71.2326 68.2739H67.4752C67.0969 68.252 66.7988 67.9514 66.7988 67.5809L66.794 57.327C66.794 55.1691 67.1471 51.9975 64.4792 51.9975C61.7726 51.9975 61.8787 55.0927 61.8787 57.327L61.8772 67.5765C61.8769 67.9653 61.5582 68.2744 61.1554 68.2744ZM130.692 47.1975C136.271 47.1975 139.297 51.9984 139.297 58.1012C139.297 63.9975 135.954 68.6826 130.692 68.6826C125.211 68.6826 122.224 63.873 122.224 57.8953C122.224 51.8773 125.245 47.1975 130.692 47.1975ZM130.728 51.1423C127.949 51.1423 127.773 54.9307 127.773 57.2831C127.773 59.6441 127.738 64.6872 130.692 64.6872C133.6 64.6872 133.739 60.6202 133.739 58.1447C133.739 56.5151 133.67 54.563 133.177 53.0157C132.757 51.6708 131.914 51.1423 130.728 51.1423ZM146.535 68.2744H142.784C142.405 68.2526 142.109 67.952 142.109 67.5815L142.101 48.2378C142.134 47.8831 142.446 47.6055 142.825 47.6055L146.319 47.6042C146.649 47.6216 146.92 47.8466 146.988 48.1473V51.1028H147.059C148.112 48.4606 149.581 47.1971 152.18 47.1971C153.868 47.1971 155.522 47.8085 156.575 49.4787C157.553 51.0197 157.553 53.6259 157.553 55.4965V67.6636C157.51 68.01 157.201 68.2742 156.839 68.2742H153.062C152.719 68.2539 152.434 67.9936 152.39 67.6636V57.1654C152.39 55.0533 152.64 51.9566 150.036 51.9566C149.122 51.9566 148.288 52.5687 147.864 53.5052C147.338 54.6858 147.269 55.862 147.269 57.1656V67.5775C147.26 67.9653 146.936 68.2744 146.535 68.2744ZM53.7821 64.7266C53.0977 63.7724 52.3656 63.0023 52.3656 61.2369V55.3676C52.3656 52.8843 52.5431 50.602 50.7103 48.8895C49.2656 47.5011 46.8733 47.012 45.0413 47.012C41.4605 47.012 37.4674 48.3498 36.6286 52.7788C36.5393 53.2526 36.8819 53.4984 37.1907 53.568L40.8374 53.9636C41.1764 53.9461 41.4254 53.6079 41.4907 53.2693C41.8044 51.7418 43.0812 51.0062 44.5162 51.0062C45.2876 51.0062 46.1676 51.2933 46.6274 51.9862C47.1552 52.759 47.0843 53.8218 47.0843 54.7189V55.2039C44.9007 55.4497 42.0492 55.612 40.0109 56.5101C37.6524 57.5318 36 59.6076 36 62.6686C36 66.5857 38.462 68.5429 41.6271 68.5429C44.3076 68.5429 45.7656 67.9098 47.833 65.8032C48.5166 66.7933 48.7398 67.271 49.9886 68.3153C50.2695 68.4642 50.6281 68.4524 50.8782 68.2265L50.8865 68.2356C51.6384 67.5647 53.0059 66.3765 53.7703 65.7326C54.0755 65.479 54.0216 65.068 53.7821 64.7266ZM46.3794 63.0344C45.78 64.0893 44.832 64.7427 43.7767 64.7427C42.3326 64.7427 41.4882 63.641 41.4882 62.0142C41.4882 58.8078 44.3642 58.2261 47.0849 58.2261V59.0398C47.0849 60.5034 47.1193 61.7283 46.3794 63.0344ZM103.104 64.7266C102.414 63.7724 101.684 63.0023 101.684 61.2369V55.3676C101.684 52.8843 101.86 50.602 100.027 48.8895C98.5887 47.5011 96.1929 47.012 94.3645 47.012C90.7845 47.012 86.7891 48.3498 85.9511 52.7788C85.8618 53.2526 86.2044 53.4984 86.5126 53.568L90.157 53.9636C90.5013 53.9461 90.7484 53.6079 90.8126 53.2693C91.1282 51.7418 92.3995 51.0062 93.8365 51.0062C94.6099 51.0062 95.4918 51.2933 95.947 51.9862C96.4734 52.759 96.4032 53.8218 96.4032 54.7189V55.2039C94.2224 55.4497 91.3724 55.612 89.3328 56.5101C86.9743 57.5318 85.3196 59.6076 85.3196 62.6686C85.3196 66.5857 87.7801 68.5429 90.9495 68.5429C93.6231 68.5429 95.0888 67.9098 97.1539 65.8032C97.8361 66.7933 98.0609 67.271 99.3096 68.3153C99.5925 68.4642 99.9475 68.4524 100.196 68.2265L100.204 68.2356C100.958 67.5647 102.325 66.3765 103.094 65.7326C103.4 65.479 103.347 65.068 103.104 64.7266ZM95.6988 63.0344C95.1042 64.0893 94.1524 64.7427 93.0961 64.7427C91.652 64.7427 90.8113 63.641 90.8113 62.0142C90.8113 58.8078 93.6835 58.2261 96.4036 58.2261V59.0398C96.4036 60.5034 96.44 61.7283 95.6988 63.0344Z" fill="#F3F3F3"/>
<path d="M111.286 75.7883C104.109 80.9167 94.1113 83.6865 85.2911 83.6865C72.9361 83.6865 61.9237 79.2095 53.4391 71.5396C52.6544 70.8301 53.161 69.998 54.1368 70.5594C63.3668 75.9029 74.4286 79.0291 86.0352 79.0291C93.8623 79.0291 102.176 77.4689 110.077 74.1043C111.804 73.3672 112.52 74.9056 111.286 75.7883Z" fill="#F9A51B"/>
<path d="M114.353 72.3271C113.445 71.1663 108.376 71.7783 106.099 72.0475C105.414 72.1317 105.302 71.5281 105.927 71.0918C109.97 68.2627 116.597 69.0863 117.363 70.0201C118.138 70.9807 117.158 77.6371 113.371 80.8145C112.787 81.3065 112.239 81.0396 112.496 80.3957C113.346 78.2611 115.256 73.4838 114.353 72.3271Z" fill="#F9A51B"/>
<path d="M161.833 65.1168C162.256 65.1168 162.617 65.2661 162.914 65.5645C163.211 65.8603 163.361 66.22 163.361 66.6411C163.361 67.0649 163.211 67.4252 162.914 67.7229C162.618 68.0215 162.258 68.1711 161.833 68.1711C161.409 68.1711 161.049 68.0215 160.752 67.7229C160.457 67.4252 160.309 67.0645 160.309 66.6411C160.309 66.22 160.457 65.8603 160.756 65.5645C161.053 65.2661 161.413 65.1168 161.833 65.1168ZM163.6 66.6375C163.6 66.1501 163.427 65.7347 163.083 65.3917C162.738 65.0484 162.319 64.8767 161.831 64.8767C161.345 64.8767 160.931 65.0484 160.586 65.3917C160.242 65.7364 160.069 66.1512 160.069 66.6375C160.069 67.1278 160.24 67.5459 160.582 67.8904C160.925 68.2377 161.342 68.4113 161.831 68.4113C162.319 68.4113 162.737 68.2377 163.082 67.8904C163.427 67.5453 163.6 67.1274 163.6 66.6375ZM162.3 66.256C162.3 66.4016 162.233 66.5006 162.099 66.5539C162.024 66.5831 161.914 66.5961 161.768 66.5961H161.455V65.9046H161.75C161.943 65.9046 162.082 65.9267 162.171 65.9746C162.257 66.0229 162.3 66.1153 162.3 66.256ZM161.122 65.6643V67.5982H161.455V66.836H161.728C161.913 66.836 162.042 66.8575 162.114 66.8976C162.239 66.9714 162.3 67.1174 162.3 67.3417V67.4949L162.308 67.5567L162.312 67.5786C162.315 67.5841 162.316 67.5917 162.317 67.5982H162.635L162.622 67.5734C162.613 67.5567 162.607 67.5244 162.604 67.4734C162.6 67.4219 162.6 67.3744 162.6 67.3291V67.1887C162.6 67.0909 162.564 66.9906 162.495 66.8873C162.424 66.7854 162.315 66.7223 162.163 66.6989C162.282 66.6799 162.375 66.6491 162.443 66.6054C162.571 66.5225 162.635 66.3955 162.635 66.2235C162.635 65.9809 162.533 65.8178 162.332 65.7337C162.22 65.6879 162.043 65.6647 161.802 65.6647L161.122 65.6643Z" fill="#F3F3F3"/>
</svg>
