<svg width="200" height="120" viewBox="0 0 200 120" fill="none" xmlns="http://www.w3.org/2000/svg">
<path fill-rule="evenodd" clip-rule="evenodd" d="M142.802 76.497L138.18 71.3145L133.603 76.497H123.97L133.388 65.9152L123.97 55.3335H133.905L138.57 60.4734L143.061 55.3335H152.649L143.276 65.8719L152.779 76.4962L142.802 76.497ZM105.465 76.497V43.1592H123.97V50.5902H113.303V55.3335H123.97V62.4823H113.303V69.0455H123.97V76.497H105.465Z" fill="#D9782D"/>
<path fill-rule="evenodd" clip-rule="evenodd" d="M97.6602 43.1592V56.8025H97.5743C95.8468 54.8157 93.6875 54.1245 91.1829 54.1245C86.0503 54.1245 82.1847 57.6147 80.8286 62.2263C79.2802 57.1452 75.2894 54.0305 69.3724 54.0305C64.5662 54.0305 60.7717 56.1874 58.7907 59.7021V55.3335H48.8559V50.5902H59.6961V43.1592H40V76.497H48.8559V62.4823H57.6815C57.4095 63.5596 57.2738 64.6667 57.2775 65.7778C57.2775 72.732 62.5908 77.6118 69.3716 77.6118C75.0727 77.6118 78.8295 74.9347 80.8171 70.0548H73.2282C72.2025 71.5222 71.423 71.9566 69.3716 71.9566C66.9914 71.9566 64.94 69.8814 64.94 67.4194H80.3926C81.0625 72.9422 85.3649 77.7059 91.2688 77.7059C93.8167 77.7059 96.1495 76.4536 97.5743 74.3368H97.6602V76.497H105.465V43.1592H97.6602ZM65.1862 62.5821C65.6786 60.4661 67.3202 59.0813 69.3716 59.0813C71.6275 59.0813 73.1873 60.4235 73.5971 62.5821H65.1862ZM92.9227 71.4216C90.0452 71.4216 88.2579 68.7396 88.2579 65.9406C88.2579 62.9477 89.812 60.071 92.9227 60.071C96.1478 60.071 97.4312 62.9477 97.4312 65.9406C97.4312 68.7772 96.0701 71.4216 92.9227 71.4216Z" fill="#F3F3F3"/>
<path fill-rule="evenodd" clip-rule="evenodd" d="M154.913 74.3492C154.913 74.0675 154.969 73.7886 155.078 73.5286C155.186 73.2685 155.345 73.0324 155.544 72.8336C155.744 72.6349 155.981 72.4775 156.242 72.3704C156.502 72.2633 156.781 72.2086 157.063 72.2095C157.344 72.2095 157.622 72.2648 157.881 72.3724C158.141 72.48 158.377 72.6376 158.575 72.8363C158.774 73.0351 158.931 73.271 159.038 73.5306C159.146 73.7902 159.201 74.0683 159.2 74.3492C159.202 74.6309 159.148 74.9101 159.041 75.1708C158.934 75.4315 158.777 75.6685 158.579 75.8682C158.38 76.0679 158.144 76.2263 157.884 76.3344C157.624 76.4425 157.345 76.4981 157.063 76.498C156.78 76.4989 156.501 76.444 156.239 76.3364C155.978 76.2288 155.741 76.0706 155.541 75.8709C155.341 75.6712 155.183 75.4339 155.075 75.1728C154.967 74.9116 154.912 74.6317 154.913 74.3492ZM158.826 74.3492C158.825 73.882 158.639 73.434 158.309 73.1036C157.979 72.7731 157.531 72.5872 157.064 72.5866C156.595 72.5857 156.145 72.7708 155.813 73.1012C155.48 73.4317 155.292 73.8805 155.29 74.3492C155.29 75.3299 156.083 76.1225 157.064 76.1225C157.296 76.1219 157.526 76.0755 157.74 75.986C157.954 75.8965 158.149 75.7657 158.312 75.601C158.476 75.4363 158.605 75.241 158.694 75.0262C158.782 74.8114 158.827 74.5814 158.826 74.3492ZM156.607 74.4907V75.581H156.214V73.061H157.029C157.49 73.061 157.969 73.1869 157.969 73.757C157.969 74.0466 157.793 74.2756 157.455 74.3451V74.3574C157.805 74.4253 157.845 74.5791 157.883 74.8523C157.918 75.0903 157.946 75.3528 158.033 75.5819H157.53C157.501 75.4404 157.463 75.28 157.445 75.1304C157.416 74.9136 157.416 74.714 157.301 74.5946C157.205 74.4915 157.074 74.5038 156.937 74.4915H156.607V74.4907ZM157.021 74.0997C157.393 74.0858 157.478 73.9321 157.478 73.739C157.478 73.5517 157.393 73.4536 157.081 73.4536H156.607V74.0997H157.021Z" fill="#D9782D"/>
</svg>
